<svg xmlns="http://www.w3.org/2000/svg" xmlns:xlink="http://www.w3.org/1999/xlink" id="Layer_1" x="0" y="0" enable-background="new 0 0 145.05 107.04" version="1.1" viewBox="0 0 145.05 107.04" xml:space="preserve"><g><g><path fill="#6D6E71" d="M53.87,65.5c-1.36-1.32-3.59-3.36-6.57-5.56c-16.88-12.46-28.58-8.3-38.74-18.29 C7.61,40.71-1.69,31.29,0.27,19.69C1.99,9.57,11.49,2.11,20.74,0.4c10.77-1.99,19.38,4.47,26.15,9.51 c7.52,5.61,11.47,11.78,12.68,13.77c3.41,5.63,8.42,13.89,6.44,24.06C64.06,57.74,56.53,63.62,53.87,65.5z"/><path fill="#F47A55" d="M92.59,64.07c-1.83,1.93-6.03,6.48-8.13,13.68c-1.32,4.54-1.34,8.51-1.16,11.1 c-2.02-3.31-4.54-8.14-6.32-14.32c-0.92-3.2-6.22-22.64,3.35-42.45c8-16.54,27.53-35.74,45.42-31.48 c8.02,1.91,16.78,8.78,18.84,18.06c2.04,9.21-3.28,17.28-4.26,18.71C129.41,53.33,107.28,48.54,92.59,64.07z"/><path fill="#EF4123" d="M125.52,87.62c-1.25-6.17-6.3-10.66-10.99-12.32c-5.34-1.89-8.77,0.38-17.19-2.26 c-2.09-0.65-3.75-1.38-4.86-1.91c-6.39,9.62-6.84,20.97-1.39,28.12c3.71,4.87,9.16,6.47,10.66,6.89 c1.79,0.5,12.28,3.17,19.25-3.97C121.36,101.8,127.15,95.67,125.52,87.62z"/><path fill="#A19C94" d="M69.69,51.33c-2.88,6.91-7.97,15.73-17.23,20.23c-12.38,6.01-22.7-0.34-29.29,6.77 c-5.14,5.55-5.65,16.72-0.02,23.18c5.53,6.35,14.67,5.48,16.13,5.32c11.6-1.3,18.42-12.19,22.09-18.06 C70.39,74.36,70.36,59.15,69.69,51.33z"/></g></g></svg>