<?xml version="1.0" encoding="utf-8"?>
<!-- Generator: Adobe Illustrator 24.1.0, SVG Export Plug-In . SVG Version: 6.00 Build 0)  -->
<svg version="1.1" id="Layer_1" xmlns="http://www.w3.org/2000/svg" xmlns:xlink="http://www.w3.org/1999/xlink" x="0px" y="0px"
	 viewBox="0 0 106.6 36.8" style="enable-background:new 0 0 106.6 36.8;" xml:space="preserve">
<style type="text/css">
	.st0{fill:#008999;}
	.st1{fill:#003A76;}
	.st2{fill:none;}
</style>
<g id="Group_53" transform="translate(205 6)">
	<g id="Group_50" transform="translate(-172.782 16.55)">
		<path id="Path_17" d="M70.8-8.9c-0.8,0-1.5-0.7-1.5-1.5c0-0.8,0.7-1.5,1.5-1.5c0.8,0,1.5,0.7,1.5,1.5C72.2-9.6,71.6-8.9,70.8-8.9
			C70.8-8.9,70.8-8.9,70.8-8.9z M70.8-11.7c-0.7,0-1.3,0.6-1.3,1.3s0.6,1.3,1.3,1.3c0.7,0,1.3-0.6,1.3-1.3
			C72.1-11.1,71.5-11.7,70.8-11.7C70.8-11.7,70.8-11.7,70.8-11.7z M70.6-9.9c0,0.1,0.1,0.1,0.2,0.1v0.1h-0.7v-0.1
			c0.1,0,0.2,0,0.2-0.1v-1.2c0-0.1,0-0.1-0.2-0.1v-0.1h0.7c0.1,0,0.2,0,0.3,0c0.1,0,0.2,0.1,0.2,0.2c0.1,0.2,0.1,0.4-0.1,0.5
			c-0.1,0.1-0.2,0.1-0.3,0.1l0.5,0.6c0,0,0.1,0.1,0.2,0.1v0.1h-0.4l-0.6-0.7h-0.1L70.6-9.9L70.6-9.9z M70.6-10.5c0.1,0,0.2,0,0.3,0
			c0.2,0,0.3-0.2,0.3-0.3c0,0,0,0,0,0c0-0.1-0.1-0.3-0.2-0.3h-0.2c0,0-0.1,0-0.1,0.1L70.6-10.5L70.6-10.5z"/>
		<path id="Path_18" class="st0" d="M-27.1,3.8C-32.2-2.6-31-12-24.5-17c5.9-4.6,14.3-4.1,19.6,1.1l-2.3,2.3
			c-14-10.9-26.4,4.4-21.5,14.5C-32.7-12.6-17.3-20-9.1-11.7l-2.2,2.2c-9.8-8.3-20.8,2.4-16.9,11c-2.2-12.1,10.7-14.2,15.1-9.1
			c-0.8,0.9-2.2,2.3-2.2,2.3C-22.1-11.3-31.1-4.3-27.1,3.8L-27.1,3.8z"/>
		<path id="Path_19" class="st1" d="M-3.7-14.6C1.4-8.1,0.2,1.2-6.2,6.3c-5.9,4.6-14.3,4.1-19.6-1.1l2.3-2.3
			C-9.5,13.8,2.9-1.6-2-11.6C1.9,1.8-13.5,9.3-21.6,0.9l2.2-2.2C-9.6,7,1.4-3.7-2.5-12.2C-0.3-0.1-13.2,2-17.6-3.1
			c0.8-0.9,2.2-2.3,2.2-2.3C-8.7,0.5,0.3-6.4-3.7-14.6L-3.7-14.6z"/>
		<path id="Path_20" d="M9.9-7.5v-5.4h2.7V0.6H9.9v-6H6.9v6H4.2v-13.5h2.7v5.4L9.9-7.5z"/>
		<path id="Path_21" d="M13.3-4.5c0-2.8,0.4-5.1,3.9-5.1s3.9,2.4,3.9,5.1c0,3.2-0.5,5.4-3.9,5.4S13.3-1.4,13.3-4.5z M18.5-4.7
			c0-2.1-0.1-3.2-1.2-3.2S16-6.8,16-4.7c0,3.1,0.2,3.8,1.2,3.8S18.5-1.6,18.5-4.7z"/>
		<path id="Path_22" d="M21.8-11.2l2.7-1.3v2.9h1.4v1.8h-1.4v5.4c0,0.8,0,1.3,0.9,1.3c0.2,0,0.3,0,0.5,0v1.8
			c-0.5,0.1-0.9,0.1-1.4,0.1c-2.3,0-2.6-1.6-2.6-2.3L21.8-11.2L21.8-11.2z"/>
		<path id="Path_23" d="M29.9,0.9c-2,0.2-3.7-1.3-3.9-3.3c0-0.4,0-0.7,0.1-1.1h2.5c0,1.3,0.2,2.4,1.7,2.4c0.9,0.1,1.7-0.6,1.8-1.5
			c0-3.4-5.9-1.6-5.9-6.6c0-2.1,1-3.8,4.3-3.8c2.6,0,4,0.9,4,3.8h-2.6c0-1-0.4-1.9-1.5-1.9c-0.8,0-1.5,0.7-1.5,1.5c0,0,0,0.1,0,0.1
			c0,3.2,6,1.3,6,6.6C34.9,0.5,31.9,0.9,29.9,0.9L29.9,0.9z"/>
		<path id="Path_24" d="M38,3.3h-2.5V-9.6h2.4v1h0c0.4-0.8,1.2-1.3,2.1-1.2c2.9,0,3.2,3,3.2,5c0,1.9-0.1,5.7-3.1,5.7
			c-0.9,0.1-1.7-0.3-2.1-1.1L38,3.3L38,3.3z M40.6-4.6c0-1.9-0.3-3.2-1.4-3.2c-1,0-1.3,1.3-1.3,3.2c0,2.4,0.5,3.4,1.3,3.4
			C40.1-1.2,40.6-2.2,40.6-4.6z"/>
		<path id="Path_25" d="M46.2-9.5v1.3h0c0.5-1.1,1.6-1.7,2.7-1.5v2.4c-2.4-0.2-2.6,0.7-2.6,2.5v5.5h-2.7V-9.5H46.2z"/>
		<path id="Path_26" d="M52.1,0.6h-2.5V-9.6h2.5V0.6z M52.1-12.5v2.2h-2.5v-2.2H52.1z"/>
		<path id="Path_27" d="M55.5-8.4L55.5-8.4c0.6-0.9,1.6-1.5,2.6-1.4c1.3,0,2.4,1,2.4,2.3c0,0,0,0,0,0.1v8.2H58v-7
			c0-0.9-0.3-1.5-1.2-1.5s-1.3,0.6-1.3,1.5v7H53V-9.5h2.6V-8.4z"/>
		<path id="Path_28" d="M66.4-0.7c-0.6,0.6-1.4,1-2.3,1c-2.9,0-3-3.2-3-5.3c0-2.1,0.3-4.8,3.2-4.8c0.9,0,1.8,0.5,2.1,1.4h0v-1.1h2.4
			v9.8c0,0.7-0.5,3.2-3.9,3.2c-1.4,0-3.5-0.4-3.5-2.7h2.4c0,0.6,0.5,1,1,1c0.8,0,1.4-0.6,1.4-1.4c0,0,0,0,0,0L66.4-0.7L66.4-0.7z
			 M65.1-1.6c0.9,0,1.3-0.9,1.3-2.9c0-2.1-0.4-3.3-1.3-3.3c-0.9,0-1.3,0.7-1.3,3.6C63.8-3.4,63.9-1.6,65.1-1.6L65.1-1.6z"/>
		<path id="Path_29" d="M18.2,6.6h2.1L20.1,7h-1.6l-0.3,1.3h1.5l-0.1,0.4h-1.5l-0.3,1.4h1.6l-0.1,0.4h-2.1L18.2,6.6z"/>
		<path id="Path_30" d="M21.1,9.4l0.1,0.5h0l0.2-0.6l1-1.7h0.5l-1.8,2.9h-0.2l-0.6-2.9h0.5L21.1,9.4L21.1,9.4z"/>
		<path id="Path_31" d="M24.7,10.3c-0.1,0.1-0.3,0.2-0.5,0.3c-0.2,0.1-0.4,0.1-0.5,0.1c-0.3,0-0.5-0.1-0.7-0.3
			c-0.2-0.2-0.2-0.5-0.2-0.7c0-0.3,0-0.6,0.1-0.8c0.1-0.2,0.2-0.4,0.3-0.6c0.1-0.2,0.3-0.3,0.5-0.4c0.2-0.1,0.4-0.1,0.6-0.1
			c0.1,0,0.2,0,0.4,0.1c0.1,0,0.2,0.1,0.2,0.2C24.9,7.9,25,8,25,8.1c0,0.1,0,0.2,0,0.3c0,0.3-0.2,0.5-0.4,0.6
			c-0.4,0.2-0.8,0.3-1.2,0.2c0,0-0.1,0-0.1,0s-0.1,0-0.2,0c0,0.1,0,0.1,0,0.2c0,0.1,0,0.1,0,0.2c0,0.2,0,0.4,0.1,0.5
			c0.1,0.1,0.3,0.2,0.4,0.2c0.2,0,0.3,0,0.5-0.1c0.1,0,0.2-0.1,0.3-0.2L24.7,10.3L24.7,10.3z M24.2,8c-0.2,0-0.4,0.1-0.5,0.2
			c-0.2,0.2-0.3,0.4-0.4,0.6c0.1,0,0.3,0,0.5,0c0.1,0,0.3,0,0.4-0.1c0.1,0,0.2-0.1,0.3-0.2c0.1-0.1,0.1-0.2,0.1-0.3c0,0,0-0.1,0-0.1
			c0,0,0-0.1-0.1-0.1c0,0-0.1-0.1-0.1-0.1C24.3,8,24.3,8,24.2,8L24.2,8z"/>
		<path id="Path_32" d="M27.2,8.1c0,0-0.1,0-0.1,0c0,0-0.1,0-0.1,0c-0.2,0-0.4,0.1-0.5,0.2c-0.1,0.1-0.3,0.3-0.3,0.4l-0.4,1.9h-0.4
			l0.6-2.9h0.3v0.5h0c0-0.1,0.1-0.1,0.1-0.2c0.1-0.1,0.1-0.1,0.2-0.2c0.1,0,0.1-0.1,0.2-0.1c0.1,0,0.2,0,0.3,0c0.1,0,0.2,0,0.3,0
			L27.2,8.1L27.2,8.1z"/>
		<path id="Path_33" d="M28.1,9.6l0,0.6h0l0.2-0.6l1-1.9h0.5l-1.4,2.6c-0.1,0.2-0.2,0.4-0.3,0.5c-0.1,0.2-0.2,0.3-0.3,0.5
			c-0.1,0.1-0.2,0.2-0.3,0.3c-0.1,0.1-0.2,0.1-0.3,0.1c-0.1,0-0.1,0-0.2,0c0,0-0.1,0-0.1,0l0.1-0.4c0,0,0.1,0,0.1,0
			c0.1,0,0.3-0.1,0.3-0.2c0.2-0.2,0.3-0.4,0.4-0.6l-0.5-2.9h0.5L28.1,9.6L28.1,9.6z"/>
		<path id="Path_34" d="M33.3,9.6c0,0.1-0.1,0.3-0.1,0.4c0,0.1,0,0.2,0,0.4c0,0,0,0.1,0,0.1s0,0.1,0,0.1h-0.3l-0.1-0.5h0
			c-0.1,0.1-0.1,0.1-0.2,0.2c-0.1,0.1-0.1,0.1-0.2,0.2c-0.1,0.1-0.2,0.1-0.3,0.1c-0.1,0-0.2,0-0.3,0c-0.2,0-0.4-0.1-0.5-0.2
			c-0.1-0.2-0.2-0.5-0.2-0.7c0-0.2,0-0.5,0.1-0.7c0.1-0.2,0.2-0.5,0.3-0.7C31.7,8.2,31.8,8,32,7.9c0.2-0.1,0.4-0.2,0.7-0.2
			c0.1,0,0.1,0,0.2,0s0.1,0,0.1,0c0,0,0.1,0,0.1,0l0.1,0l0.3-1.2h0.4L33.3,9.6L33.3,9.6z M32,10.3c0.1,0,0.2,0,0.2-0.1
			c0.1,0,0.2-0.1,0.2-0.2c0.1-0.1,0.1-0.1,0.2-0.2c0.1-0.1,0.1-0.1,0.1-0.2l0.3-1.5c-0.1,0-0.1-0.1-0.2-0.1c-0.1,0-0.2,0-0.3,0
			c-0.1,0-0.3,0-0.4,0.1c-0.1,0.1-0.2,0.2-0.3,0.4c-0.1,0.2-0.2,0.4-0.2,0.5c0,0.2-0.1,0.4-0.1,0.6c0,0.1,0,0.3,0.1,0.4
			C31.8,10.3,31.9,10.3,32,10.3L32,10.3z"/>
		<path id="Path_35" d="M36.2,9.5c0,0.1-0.1,0.3-0.1,0.4c0,0.1,0,0.3,0,0.4v0.2c0,0,0,0.1,0,0.1h-0.3l-0.1-0.5h0
			c-0.1,0.1-0.1,0.1-0.2,0.2c-0.1,0.1-0.1,0.1-0.2,0.2c-0.1,0.1-0.2,0.1-0.3,0.1c-0.1,0-0.2,0-0.3,0c-0.5,0-0.7-0.3-0.7-0.9
			c0-0.3,0-0.5,0.1-0.7c0.1-0.2,0.2-0.5,0.3-0.7C34.6,8.2,34.8,8,35,7.9c0.2-0.1,0.5-0.2,0.8-0.2c0.1,0,0.3,0,0.4,0
			c0.1,0,0.3,0.1,0.4,0.1L36.2,9.5L36.2,9.5z M34.9,10.3c0.1,0,0.2,0,0.3-0.1c0.1,0,0.2-0.1,0.2-0.2c0.1-0.1,0.2-0.3,0.3-0.4L36,8.1
			C35.9,8.1,35.8,8,35.6,8c-0.2,0-0.3,0.1-0.5,0.2c-0.1,0.1-0.3,0.2-0.3,0.4c-0.1,0.2-0.2,0.4-0.2,0.6c0,0.2-0.1,0.4-0.1,0.6
			c0,0.1,0,0.3,0.1,0.4C34.7,10.3,34.8,10.3,34.9,10.3L34.9,10.3z"/>
		<path id="Path_36" d="M37.7,9.6l0,0.6h0L38,9.6l1-1.9h0.5L38,10.3c-0.1,0.2-0.2,0.4-0.3,0.5c-0.1,0.2-0.2,0.3-0.3,0.5
			c-0.1,0.1-0.2,0.2-0.3,0.3c-0.1,0.1-0.2,0.1-0.3,0.1c-0.1,0-0.1,0-0.2,0c0,0-0.1,0-0.1,0l0.1-0.4c0,0,0.1,0,0.1,0
			c0.1,0,0.3-0.1,0.3-0.2c0.2-0.2,0.3-0.4,0.4-0.6L37,7.7h0.5L37.7,9.6L37.7,9.6z"/>
		<path id="Path_37" d="M42.2,10.6L42.6,9c0-0.1,0.1-0.3,0.1-0.4c0-0.1,0-0.2,0-0.3c0-0.1,0-0.2-0.1-0.2c0-0.1-0.1-0.1-0.2-0.1
			c-0.1,0-0.2,0-0.3,0.1c-0.1,0.1-0.2,0.1-0.3,0.2c-0.1,0.1-0.2,0.2-0.2,0.2c-0.1,0.1-0.1,0.1-0.2,0.2l-0.4,1.8h-0.4l0.6-2.9h0.3
			l0,0.5h0c0.1-0.1,0.1-0.1,0.2-0.2c0.1-0.1,0.3-0.2,0.5-0.3c0.1,0,0.2-0.1,0.3-0.1c0.1,0,0.3,0,0.3,0.2c0.1,0.1,0.1,0.3,0.1,0.4
			c0.1-0.1,0.1-0.2,0.2-0.2c0.1-0.1,0.2-0.1,0.2-0.2c0.1-0.1,0.2-0.1,0.3-0.1c0.1,0,0.2-0.1,0.3-0.1c0.3,0,0.5,0.1,0.6,0.4
			c0,0.1,0,0.1,0,0.2c0,0.2,0,0.4-0.1,0.6l-0.4,1.7h-0.4l0.4-1.7c0-0.1,0-0.2,0.1-0.3c0-0.1,0-0.2,0-0.2c0-0.1,0-0.2-0.1-0.2
			C44.1,8.1,44,8,44,8c-0.1,0-0.2,0-0.3,0.1c-0.1,0.1-0.2,0.1-0.3,0.2c-0.1,0.1-0.2,0.2-0.2,0.2c-0.1,0.1-0.1,0.2-0.2,0.2l-0.4,1.8
			L42.2,10.6z"/>
		<path id="Path_38" d="M47.2,9.5c0,0.1-0.1,0.3-0.1,0.4c0,0.1,0,0.3,0,0.4v0.2c0,0,0,0.1,0,0.1h-0.3l-0.1-0.5h0
			c-0.1,0.1-0.2,0.3-0.4,0.4c-0.1,0.1-0.2,0.1-0.3,0.1c-0.1,0-0.2,0-0.3,0c-0.5,0-0.7-0.3-0.7-0.9c0-0.3,0-0.5,0.1-0.7
			c0.1-0.2,0.2-0.5,0.3-0.7C45.7,8.2,45.8,8,46,7.9c0.2-0.1,0.5-0.2,0.8-0.2c0.1,0,0.3,0,0.4,0c0.1,0,0.3,0.1,0.4,0.1L47.2,9.5
			L47.2,9.5z M45.9,10.3c0.1,0,0.2,0,0.3-0.1c0.1,0,0.2-0.1,0.2-0.2c0.1-0.1,0.1-0.1,0.2-0.2c0.1-0.1,0.1-0.1,0.1-0.2l0.3-1.5
			C47,8.1,46.8,8,46.7,8c-0.2,0-0.3,0.1-0.5,0.2c-0.1,0.1-0.3,0.2-0.3,0.4c-0.1,0.2-0.2,0.4-0.2,0.6c0,0.2-0.1,0.4-0.1,0.6
			c0,0.1,0,0.3,0.1,0.4C45.7,10.3,45.8,10.3,45.9,10.3L45.9,10.3z"/>
		<path id="Path_39" d="M50.1,9.6C50,9.8,50,9.9,50,10c0,0.1,0,0.2,0,0.4c0,0,0,0.1,0,0.1s0,0.1,0,0.1h-0.3l-0.1-0.5h0
			c-0.1,0.1-0.1,0.1-0.2,0.2c-0.1,0.1-0.1,0.1-0.2,0.2c-0.1,0.1-0.2,0.1-0.3,0.1c-0.1,0-0.2,0-0.3,0c-0.2,0-0.4-0.1-0.5-0.2
			C48,10.2,47.9,10,48,9.7c0-0.2,0-0.5,0.1-0.7c0.1-0.2,0.2-0.5,0.3-0.7c0.1-0.2,0.3-0.4,0.5-0.5c0.2-0.1,0.4-0.2,0.7-0.2
			c0.1,0,0.1,0,0.2,0s0.1,0,0.1,0c0,0,0.1,0,0.1,0l0.1,0l0.3-1.2h0.4L50.1,9.6L50.1,9.6z M48.8,10.3c0.1,0,0.2,0,0.2-0.1
			c0.1,0,0.2-0.1,0.2-0.2c0.1-0.1,0.1-0.1,0.2-0.2c0.1-0.1,0.1-0.1,0.1-0.2L50,8.2c-0.1,0-0.1-0.1-0.2-0.1c-0.1,0-0.2,0-0.3,0
			c-0.1,0-0.3,0-0.4,0.1c-0.1,0.1-0.2,0.2-0.3,0.4c-0.1,0.2-0.2,0.4-0.2,0.5c0,0.2-0.1,0.4-0.1,0.6c0,0.1,0,0.3,0.1,0.4
			C48.6,10.3,48.7,10.3,48.8,10.3L48.8,10.3z"/>
		<path id="Path_40" d="M52.8,10.3c-0.1,0.1-0.3,0.2-0.5,0.3c-0.2,0.1-0.4,0.1-0.5,0.1c-0.3,0-0.5-0.1-0.7-0.3
			c-0.2-0.2-0.2-0.5-0.2-0.7c0-0.3,0-0.6,0.1-0.8c0.1-0.2,0.2-0.4,0.3-0.6c0.1-0.2,0.3-0.3,0.5-0.4c0.2-0.1,0.4-0.1,0.6-0.1
			c0.1,0,0.2,0,0.4,0.1c0.1,0,0.2,0.1,0.2,0.2c0.1,0.1,0.1,0.1,0.1,0.2c0,0.1,0,0.2,0,0.3c0,0.3-0.2,0.5-0.4,0.6
			c-0.4,0.2-0.8,0.3-1.2,0.2c0,0-0.1,0-0.1,0s-0.1,0-0.2,0c0,0.1,0,0.1,0,0.2c0,0.1,0,0.1,0,0.2c0,0.2,0,0.4,0.1,0.5
			c0.1,0.1,0.3,0.2,0.4,0.2c0.2,0,0.3,0,0.5-0.1c0.1,0,0.2-0.1,0.3-0.2L52.8,10.3L52.8,10.3z M52.3,8c-0.2,0-0.4,0.1-0.5,0.2
			c-0.2,0.2-0.3,0.4-0.4,0.6c0.1,0,0.3,0,0.5,0c0.1,0,0.3,0,0.4-0.1c0.1,0,0.2-0.1,0.3-0.2c0.1-0.1,0.2-0.3,0.1-0.4
			c0,0,0-0.1-0.1-0.1c0,0-0.1-0.1-0.1-0.1C52.5,8.1,52.4,8,52.3,8L52.3,8z"/>
		<path id="Path_41" d="M55.8,6.6h0.4l-0.3,1.6h0C56,8.2,56.1,8.1,56.1,8c0.1-0.1,0.1-0.1,0.2-0.2c0.1-0.1,0.2-0.1,0.3-0.1
			c0.1,0,0.2,0,0.3,0c0.2,0,0.4,0.1,0.5,0.2c0.1,0.2,0.2,0.4,0.2,0.6c0,0.3,0,0.6-0.1,0.9c-0.1,0.2-0.2,0.5-0.4,0.7
			c-0.1,0.2-0.3,0.3-0.5,0.4c-0.2,0.1-0.4,0.1-0.6,0.1c-0.2,0-0.4,0-0.5-0.1c-0.1,0-0.2-0.1-0.3-0.2L55.8,6.6L55.8,6.6z M56.8,8
			c-0.1,0-0.2,0-0.3,0.1c-0.1,0-0.2,0.1-0.3,0.2C56.1,8.4,56,8.5,56,8.6c-0.1,0.1-0.1,0.2-0.2,0.3l-0.3,1.3c0.1,0.1,0.3,0.1,0.5,0.1
			c0.1,0,0.3,0,0.4-0.1c0.1-0.1,0.3-0.2,0.4-0.3C56.9,9.7,57,9.5,57,9.3c0.1-0.2,0.1-0.5,0.1-0.7c0-0.1,0-0.3-0.1-0.4
			C57,8.1,56.9,8,56.8,8L56.8,8z"/>
		<path id="Path_42" d="M60,10.3c-0.1,0.1-0.3,0.2-0.5,0.3c-0.2,0.1-0.4,0.1-0.5,0.1c-0.3,0-0.5-0.1-0.7-0.3
			c-0.2-0.2-0.2-0.5-0.2-0.7c0-0.3,0-0.6,0.1-0.8c0.1-0.2,0.2-0.4,0.3-0.6C58.7,8,58.8,7.9,59,7.8c0.2-0.1,0.4-0.1,0.6-0.1
			c0.1,0,0.2,0,0.4,0.1c0.1,0,0.2,0.1,0.2,0.2c0.1,0.1,0.1,0.1,0.1,0.2c0,0.1,0,0.2,0,0.3c0,0.3-0.2,0.5-0.4,0.6
			c-0.4,0.2-0.8,0.3-1.2,0.2c0,0-0.1,0-0.1,0c0,0-0.1,0-0.2,0c0,0.1,0,0.1,0,0.2c0,0.1,0,0.1,0,0.2c0,0.2,0,0.4,0.1,0.5
			c0.1,0.1,0.3,0.2,0.4,0.2c0.2,0,0.3,0,0.5-0.1c0.1,0,0.2-0.1,0.3-0.2L60,10.3L60,10.3z M59.5,8c-0.2,0-0.4,0.1-0.5,0.2
			c-0.2,0.2-0.3,0.4-0.4,0.6c0.1,0,0.3,0,0.5,0c0.1,0,0.3,0,0.4-0.1c0.1,0,0.2-0.1,0.3-0.2c0.1-0.1,0.1-0.2,0.1-0.3c0,0,0-0.1,0-0.1
			c0,0,0-0.1-0.1-0.1c0,0-0.1-0.1-0.1-0.1C59.7,8,59.6,8,59.5,8L59.5,8z"/>
		<path id="Path_43" d="M60.8,7.7h0.4l0.1-0.6L61.8,7l-0.1,0.7h0.8l-0.1,0.4h-0.7l-0.4,1.7c0,0,0,0.1,0,0.1c0,0,0,0.1,0,0.1
			c0,0.1,0,0.1,0.1,0.2c0.1,0,0.1,0.1,0.2,0.1c0.1,0,0.2,0,0.3,0c0.1,0,0.2-0.1,0.2-0.1v0.4c-0.1,0.1-0.2,0.1-0.3,0.1
			c-0.1,0-0.2,0-0.4,0c-0.3,0-0.5-0.2-0.5-0.5c0-0.1,0-0.2,0-0.2l0.4-1.9h-0.4L60.8,7.7L60.8,7.7z"/>
		<path id="Path_44" d="M62.6,7.7h0.4l0.1-0.6L63.6,7l-0.1,0.7h0.8l-0.1,0.4h-0.7l-0.4,1.7c0,0,0,0.1,0,0.1c0,0,0,0.1,0,0.1
			c0,0.1,0,0.1,0.1,0.2c0.1,0,0.1,0.1,0.2,0.1c0.1,0,0.2,0,0.3,0c0.1,0,0.2-0.1,0.2-0.1v0.4c-0.1,0.1-0.2,0.1-0.3,0.1
			c-0.1,0-0.2,0-0.4,0c-0.3,0-0.5-0.2-0.5-0.5c0-0.1,0-0.2,0-0.2L63,8.1h-0.4L62.6,7.7L62.6,7.7z"/>
		<path id="Path_45" d="M66.3,10.3c-0.1,0.1-0.3,0.2-0.5,0.3c-0.2,0.1-0.4,0.1-0.5,0.1c-0.3,0-0.5-0.1-0.7-0.3
			c-0.2-0.2-0.2-0.5-0.2-0.7c0-0.3,0-0.6,0.1-0.8c0.1-0.2,0.2-0.4,0.3-0.6c0.1-0.2,0.3-0.3,0.5-0.4c0.2-0.1,0.4-0.1,0.6-0.1
			c0.1,0,0.2,0,0.4,0.1c0.1,0,0.2,0.1,0.2,0.2c0.1,0.1,0.1,0.1,0.1,0.2c0,0.1,0,0.2,0,0.3c0,0.3-0.2,0.5-0.4,0.6
			c-0.4,0.2-0.8,0.3-1.2,0.2c0,0-0.1,0-0.1,0s-0.1,0-0.2,0c0,0.1,0,0.1,0,0.2c0,0.1,0,0.1,0,0.2c0,0.2,0,0.4,0.1,0.5
			c0.1,0.1,0.3,0.2,0.4,0.2c0.2,0,0.3,0,0.5-0.1c0.1,0,0.2-0.1,0.3-0.2L66.3,10.3L66.3,10.3z M65.8,8c-0.2,0-0.4,0.1-0.5,0.2
			c-0.2,0.2-0.3,0.4-0.4,0.6c0.1,0,0.3,0,0.5,0c0.1,0,0.3,0,0.4-0.1c0.1,0,0.2-0.1,0.3-0.2c0.1-0.1,0.1-0.2,0.1-0.3c0,0,0-0.1,0-0.1
			c0,0,0-0.1-0.1-0.1c0,0-0.1-0.1-0.1-0.1C65.9,8,65.8,8,65.8,8L65.8,8z"/>
		<path id="Path_46" d="M68.8,8.1c0,0-0.1,0-0.1,0c0,0-0.1,0-0.1,0c-0.2,0-0.4,0.1-0.5,0.2c-0.1,0.1-0.3,0.3-0.3,0.4l-0.4,1.9h-0.4
			l0.6-2.9h0.3v0.5h0c0-0.1,0.1-0.1,0.1-0.2C68,8,68.1,7.9,68.1,7.9c0.1,0,0.1-0.1,0.2-0.1c0.1,0,0.2,0,0.3,0c0.1,0,0.2,0,0.3,0
			L68.8,8.1L68.8,8.1z"/>
		<path id="Path_47" d="M69,7c0-0.1,0-0.2,0.1-0.3c0-0.1,0.1-0.1,0.1-0.2c0.1-0.1,0.1-0.1,0.2-0.1c0.1,0,0.2,0,0.3,0
			c0.1,0,0.2,0,0.3,0c0.1,0,0.1,0.1,0.2,0.1c0.1,0.1,0.1,0.1,0.1,0.2c0,0.1,0.1,0.2,0,0.3c0,0.1,0,0.2-0.1,0.3
			c0,0.1-0.1,0.1-0.1,0.2c-0.1,0.1-0.1,0.1-0.2,0.1c-0.1,0-0.2,0-0.2,0c-0.1,0-0.2,0-0.3,0c-0.1,0-0.1-0.1-0.2-0.1
			c-0.1-0.1-0.1-0.1-0.1-0.2C69,7.2,69,7.1,69,7L69,7z M69.2,7c0,0.1,0,0.2,0,0.2c0,0.1,0.1,0.2,0.3,0.3c0.1,0,0.1,0,0.2,0
			c0.1,0,0.1,0,0.2,0c0.1,0,0.1-0.1,0.2-0.1c0,0,0.1-0.1,0.1-0.2c0-0.1,0-0.1,0-0.2c0-0.1,0-0.2,0-0.2c0-0.1-0.1-0.1-0.1-0.2
			c0,0-0.1-0.1-0.2-0.1c-0.1,0-0.1,0-0.2,0c-0.1,0-0.1,0-0.2,0c-0.1,0-0.1,0.1-0.2,0.1c0,0-0.1,0.1-0.1,0.2C69.2,6.9,69.2,7,69.2,7
			L69.2,7z M69.4,6.7c0,0,0.1,0,0.1,0c0,0,0.1,0,0.1,0c0.1,0,0.1,0,0.2,0c0.1,0,0.1,0.1,0.1,0.1c0,0,0,0.1,0,0.1c0,0-0.1,0-0.1,0
			l0.1,0L70,7.4h-0.2l-0.2-0.3l-0.1,0v0.3h-0.1L69.4,6.7L69.4,6.7z M69.6,6.8L69.6,6.8C69.6,6.8,69.6,6.8,69.6,6.8L69.5,7h0.1
			c0,0,0.1,0,0.1,0c0,0,0,0,0-0.1C69.8,6.8,69.7,6.8,69.6,6.8L69.6,6.8z"/>
	</g>
	<rect x="-205" y="-6" class="st2" width="106.6" height="36.8"/>
</g>
</svg>

